:FULLY-SPECIFIED
:FORCE-ALL-JOINTS-BE-3DOF
:DEGREES
645
root 5.6358 16.5233 -3.18243 16.2374 9.00799 -0.948148
lfemur -15.4046 21.3149 -26.5739
ltibia 34.5748 -0 0
lfoot -35.9234 10.8353 -0.0435377
ltoes 23.5813 -0 0
rfemur -56.3799 -27.2962 29.3618
rtibia 66.5005 -0 0
rfoot -4.44825 -5.88552 -0.250839
rtoes 0.991393 -0 0
lowerback -1.31 -3.82133 -4.7531
upperback -2.34188 -5.08249 0.573952
thorax -1.21253 -2.46797 3.21077
lowerneck -10.1085 -7.15487 0.0597678
upperneck 6.12377 -10.1697 6.0508
head 3.98646 -4.71728 1.29731
lclavicle -1.97542e-14 -2.78299e-14 0
lhumerus -40.4946 -68.8676 122.88
lradius 74.0745 -0 0
lwrist 23.8634 0 0
lhand -6.27194 2.25625 0.0426473
lfingers 7.12502 -0 0
lthumb 19.5699 31.2794 0.0377813
rclavicle -1.97542e-14 -2.78299e-14 0
rhumerus -34.2339 -0.662485 -72.4186
rradius 68.0093 -0 0
rwrist -22.9302 0 0
rhand -29.9547 -43.6998 -0.0881374
rfingers 7.12502 -0 0
rthumb -3.27377 -73.6557 -0.0850809
646
root 5.62082 16.4933 -3.12598 16.5931 8.11342 -0.727751
lfemur -15.6954 21.8448 -26.984
ltibia 34.911 -0 0
lfoot -36.1466 10.9584 -0.0425074
ltoes 23.1031 -0 0
rfemur -57.4038 -27.905 30.4729
rtibia 66.7824 -0 0
rfoot -5.19018 -5.86018 -0.254779
rtoes 1.35813 -0 0
lowerback -1.23384 -3.86158 -4.93572
upperback -2.27582 -5.14023 0.40939
thorax -1.18169 -2.49722 3.1447
lowerneck -10.0562 -7.15949 -0.0385021
upperneck 5.55997 -10.1428 6.27876
head 3.83634 -4.71638 1.40502
lclavicle -1.97542e-14 -2.78299e-14 0
lhumerus -41.5081 -69.434 124.002
lradius 74.07 -0 0
lwrist 24.0689 0 0
lhand -6.01707 2.51599 0.0376827
lfingers 7.12502 -0 0
lthumb 19.8151 31.5157 0.0334477
rclavicle -1.97542e-14 -2.78299e-14 0
rhumerus -35.9438 -1.48036 -73.1167
rradius 66.3305 -0 0
rwrist -21.5415 0 0
rhand -29.8838 -44.6088 -0.0822309
rfingers 7.12502 -0 0
rthumb -3.20523 -74.5656 -0.0793827
647
root 5.60535 16.4613 -3.05596 16.9097 7.34165 -0.517471
lfemur -15.9903 22.3666 -27.378
ltibia 35.2527 -0 0
lfoot -36.3567 11.1105 -0.0398865
ltoes 22.6231 -0 0
rfemur -58.412 -28.4606 31.57
rtibia 67.0466 -0 0
rfoot -5.88577 -5.75523 -0.24794
rtoes 1.70503 -0 0
lowerback -1.14816 -3.89935 -5.11448
upperback -2.20555 -5.19511 0.249918
thorax -1.152 -2.52519 3.08226
lowerneck -10.0011 -7.16927 -0.13582
upperneck 5.02963 -10.1224 6.49842
head 3.69497 -4.71871 1.50833
lclavicle -1.97542e-14 -2.78299e-14 0
lhumerus -42.4345 -69.9281 125.008
lradius 74.0256 -0 0
lwrist 24.2621 0 0
lhand -5.77828 2.76501 0.0318574
lfingers 7.12502 -0 0
lthumb 20.0448 31.7426 0.0283406
rclavicle -1.97542e-14 -2.78299e-14 0
rhumerus -37.474 -2.28559 -73.7798
rradius 64.808 -0 0
rwrist -20.2674 0 0
rhand -29.808 -45.4471 -0.0738745
rfingers 7.12502 -0 0
rthumb -3.13206 -75.4048 -0.0713185
648
root 5.58943 16.4275 -2.97056 17.1838 6.70661 -0.317541
lfemur -16.2859 22.8751 -27.7507
ltibia 35.5968 -0 0
lfoot -36.5508 11.2913 -0.0355471
ltoes 22.1461 -0 0
rfemur -59.3901 -28.9571 32.6382
rtibia 67.2899 -0 0
rfoot -6.52586 -5.56797 -0.228563
rtoes 2.0277 -0 0
lowerback -1.05337 -3.93412 -5.28743
upperback -2.13156 -5.24645 0.0973606
thorax -1.12382 -2.55156 3.02425
lowerneck -9.94351 -7.18434 -0.231193
upperneck 4.53951 -10.1095 6.70735
head 3.56414 -4.72447 1.60602
lclavicle -1.97542e-14 -2.78299e-14 0
lhumerus -43.239 -70.3445 125.861
lradius 73.9396 -0 0
lwrist 24.4406 0 0
lhand -5.5587 3.00035 0.025432
lfingers 7.12502 -0 0
lthumb 20.256 31.9576 0.0226843
rclavicle -1.97542e-14 -2.78299e-14 0
rhumerus -38.8023 -3.06421 -74.4059
rradius 63.4646 -0 0
rwrist -19.126 0 0
rhand -29.728 -46.2032 -0.0631367
rfingers 7.12502 -0 0
rthumb -3.05477 -76.1617 -0.0609543
649
root 5.57309 16.3915 -2.86797 17.4115 6.22231 -0.128282
lfemur -16.5787 23.3652 -28.0969
ltibia 35.9401 -0 0
lfoot -36.7263 11.5007 -0.0294017
ltoes 21.6765 -0 0
rfemur -60.3229 -29.3895 33.6614
rtibia 67.5086 -0 0
rfoot -7.10121 -5.29572 -0.19511
rtoes 2.32176 -0 0
lowerback -0.949859 -3.96538 -5.45263
upperback -2.05438 -5.29359 -0.046458
thorax -1.09751 -2.57599 2.97146
lowerneck -9.88387 -7.20488 -0.323629
upperneck 4.09639 -10.1051 6.90315
head 3.44567 -4.73386 1.69688
lclavicle -1.97542e-14 -2.78299e-14 0
lhumerus -43.8853 -70.6777 126.524
lradius 73.8107 -0 0
lwrist 24.6018 0 0
lhand -5.36146 3.21904 0.0187034
lfingers 7.12502 -0 0
lthumb 20.4457 32.158 0.0167354
rclavicle -1.97542e-14 -2.78299e-14 0
rhumerus -39.9067 -3.8019 -74.9937
rradius 62.3229 -0 0
rwrist -18.1354 0 0
rhand -29.6442 -46.8651 -0.0501508
rfingers 7.12502 -0 0
rthumb -2.97386 -76.8246 -0.0484188
650
root 5.55636 16.3533 -2.74637 17.5894 5.90271 0.0498016
lfemur -16.8649 23.8317 -28.4111
ltibia 36.2797 -0 0
lfoot -36.8805 11.7389 -0.0214099
ltoes 21.2192 -0 0
rfemur -61.1947 -29.7536 34.6235
rtibia 67.6994 -0 0
rfoot -7.60252 -4.93577 -0.146346
rtoes 2.58283 -0 0
lowerback -0.838046 -3.99266 -5.60813
upperback -1.97454 -5.33586 -0.179708
thorax -1.07342 -2.59817 2.92469
lowerneck -9.82255 -7.23105 -0.412137
upperneck 3.70703 -10.1102 7.08339
head 3.34136 -4.74708 1.77968
lclavicle -1.97542e-14 -2.78299e-14 0
lhumerus -44.3378 -70.9221 126.959
lradius 73.6372 -0 0
lwrist 24.7434 0 0
lhand -5.18969 3.41811 0.0119952
lfingers 7.12502 -0 0
lthumb 20.6109 32.3411 0.0107745
rclavicle -1.97542e-14 -2.78299e-14 0
rhumerus -40.7652 -4.48414 -75.5426
rradius 61.4055 -0 0
rwrist -17.3137 0 0
rhand -29.5572 -47.4214 -0.0351147
rfingers 7.12502 -0 0
rthumb -2.88981 -77.3817 -0.0339029
651
root 5.53926 16.3127 -2.60395 17.7137 5.76182 0.21591
lfemur -17.1406 24.2695 -28.6877
ltibia 36.6124 -0 0
lfoot -37.0107 12.0055 -0.0115848
ltoes 20.7786 -0 0
rfemur -61.9896 -30.0458 35.5077
rtibia 67.8587 -0 0
rfoot -8.02038 -4.48534 -0.0814292
rtoes 2.80654 -0 0
lowerback -0.718335 -4.01548 -5.75196
upperback -1.89256 -5.37263 -0.300555
thorax -1.0519 -2.61776 2.88473
lowerneck -9.75996 -7.26301 -0.495726
upperneck 3.37821 -10.126 7.24564
head 3.25303 -4.76436 1.8532
lclavicle -1.97542e-14 -2.78299e-14 0
lhumerus -44.5641 -71.0716 127.13
lradius 73.4176 -0 0
lwrist 24.8627 0 0
lhand -5.04651 3.59461 0.00564667
lfingers 7.12502 -0 0
lthumb 20.7486 32.5042 0.00509656
rclavicle -1.97542e-14 -2.78299e-14 0
rhumerus -41.356 -5.09629 -76.0522
rradius 60.735 -0 0
rwrist -16.6791 0 0
rhand -29.4674 -47.8602 -0.0182899
rfingers 7.12502 -0 0
rthumb -2.80308 -77.8214 -0.0176592
652
root 5.52183 16.2696 -2.43889 17.7807 5.81363 0.36883
lfemur -17.4017 24.6737 -28.9211
ltibia 36.9351 0 0
lfoot -37.114 12.3006 0
ltoes 20.3595 0 0
rfemur -62.6914 -30.2631 36.2973
rtibia 67.9832 0 0
rfoot -8.34533 -3.94159 0
rtoes 2.98849 0 0
lowerback -0.591138 -4.03337 -5.88217
upperback -1.80897 -5.40325 -0.407164
thorax -1.03332 -2.63444 2.85238
lowerneck -9.69647 -7.30093 -0.573404
upperneck 3.11671 -10.1537 7.38745
head 3.18248 -4.7859 1.91621
lclavicle -3.79679e-14 -7.95139e-15 0
lhumerus -44.5367 -71.1192 127.009
lradius 73.1505 0 0
lwrist 24.9573 0 0
lhand -4.93506 3.74556 0
lfingers 7.12502 0 0
lthumb 20.8558 32.6446 0
rclavicle -3.79679e-14 -7.95139e-15 0
rhumerus -41.6572 -5.62375 -76.5216
rradius 60.334 0 0
rwrist -16.2497 0 0
rhand -29.3753 -48.1698 0
rfingers 7.12502 0 0
rthumb -2.71414 -798.132 0
653
root 5.50565 16.2223 -2.27365 17.9239 4.772 0.444593
lfemur -17.7983 24.934 -28.8961
ltibia 38.1977 -0 0
lfoot -36.1227 11.8846 -0.149594
ltoes 19.6679 -0 0
rfemur -62.6491 -30.156 36.5228
rtibia 68.0838 -0 0
rfoot -9.08227 -4.14484 -5.61542e-05
rtoes 3.12271 -0 0
lowerback -0.583514 -4.11701 -5.8076
upperback -1.79663 -5.51508 -0.431126
thorax -1.02961 -2.69191 2.78609
lowerneck -9.6979 -7.21575 -0.582545
upperneck 2.84022 -10.0139 7.34686
head 3.09666 -4.72902 1.92005
lclavicle -3.79679e-14 -7.95139e-15 0
lhumerus -44.1698 -71.5071 126.633
lradius 73.5575 -0 0
lwrist 25.1248 0 0
lhand -5.01353 3.74411 0.00200295
lfingers 7.12502 -0 0
lthumb 20.7802 32.6493 0.00139788
rclavicle -3.79679e-14 -7.95139e-15 0
rhumerus -42.6783 -6.23427 -76.0351
rradius 59.7 -0 0
rwrist -15.72 0 0
rhand -29.3076 -48.5842 0.00289492
rfingers 7.12502 -0 0
rthumb -2.64876 -78.5471 0.00279101
654
root 5.49211 16.1701 -2.13003 18.0452 3.65102 0.51193
lfemur -18.2483 25.193 -28.8087
ltibia 39.7117 -0 0
lfoot -34.8738 11.3699 -0.322983
ltoes 18.8722 -0 0
rfemur -62.4542 -29.9535 36.648
rtibia 68.1677 -0 0
rfoot -9.88234 -4.36107 0.00125276
rtoes 3.23725 -0 0
lowerback -0.578765 -4.2143 -5.69375
upperback -1.78719 -5.64474 -0.439664
thorax -1.02901 -2.75861 2.71383
lowerneck -9.70426 -7.11312 -0.582292
upperneck 2.57913 -9.85102 7.26739
head 3.01216 -4.66111 1.91059
lclavicle -3.79679e-14 -7.95139e-15 0
lhumerus -43.4819 -71.8913 125.909
lradius 74.0395 -0 0
lwrist 25.3018 0 0
lhand -5.14565 3.70833 0.00582941
lfingers 7.12502 -0 0
lthumb 20.653 32.6243 0.00431708
rclavicle -3.79679e-14 -7.95139e-15 0
rhumerus -43.6732 -6.85279 -75.3638
rradius 59.1811 -0 0
rwrist -15.2776 0 0
rhand -29.2302 -48.9588 0.00600797
rfingers 7.12502 -0 0
rthumb -2.57403 -78.9224 0.005792
655
root 5.48098 16.1142 -2.00528 18.1452 2.46417 0.571148
lfemur -18.7448 25.4496 -28.6638
ltibia 41.4495 -0 0
lfoot -33.3924 10.7648 -0.51049
ltoes 17.985 -0 0
rfemur -62.119 -29.6635 36.6802
rtibia 68.2353 -0 0
rfoot -10.7355 -4.58788 0.00307596
rtoes 3.33258 -0 0
lowerback -0.57688 -4.32361 -5.54401
upperback -1.78056 -5.79012 -0.433722
thorax -1.03129 -2.83346 2.63651
lowerneck -9.71516 -6.99494 -0.573282
upperneck 2.33416 -9.66811 7.15208
head 2.92949 -4.58341 1.88874
lclavicle -3.79679e-14 -7.95139e-15 0
lhumerus -42.4779 -72.2655 124.844
lradius 74.588 -0 0
lwrist 25.4862 0 0
lhand -5.32695 3.64072 0.0111704
lfingers 7.12502 -0 0
lthumb 20.4785 32.5717 0.00851045
rclavicle -3.79679e-14 -7.95139e-15 0
rhumerus -44.6395 -7.46965 -74.5238
rradius 58.7736 -0 0
rwrist -14.92 0 0
rhand -29.1444 -49.2935 0.00934343
rfingers 7.12502 -0 0
rthumb -2.49111 -79.2579 0.00900751
656
root 5.47199 16.0558 -1.89666 18.2245 1.22489 0.622658
lfemur -19.2806 25.7028 -28.4664
ltibia 43.3835 -0 0
lfoot -31.704 10.0778 -0.702281
ltoes 17.0192 -0 0
rfemur -61.6565 -29.2931 36.6273
rtibia 68.2871 -0 0
rfoot -11.6319 -4.82288 0.0046794
rtoes 3.40915 -0 0
lowerback -0.577849 -4.44335 -5.3618
upperback -1.77669 -5.9491 -0.414241
thorax -1.03621 -2.91535 2.55507
lowerneck -9.7302 -6.8631 -0.556157
upperneck 2.10598 -9.46801 7.00403
head 2.84914 -4.49717 1.85542
lclavicle -3.79679e-14 -7.95139e-15 0
lhumerus -41.1652 -72.6222 123.448
lradius 75.1946 -0 0
lwrist 25.6763 0 0
lhand -5.55293 3.5438 0.0176567
lfingers 7.12502 -0 0
lthumb 20.261 32.4938 0.0136795
rclavicle -3.79679e-14 -7.95139e-15 0
rhumerus -45.5748 -8.07613 -73.5316
rradius 58.4736 -0 0
rwrist -14.6448 0 0
rhand -29.0512 -49.5881 0.0128725
rfingers 7.12502 -0 0
rthumb -2.40114 -79.5533 0.0124102
